<svg xmlns:xlink="http://www.w3.org/1999/xlink" version="1.1" viewBox="55 79 403 345" xmlns="http://www.w3.org/2000/svg" id="freepik_stories-for-sale" class="animated" style="max-height: 500px" width="403" height="345"><style>svg#freepik_stories-for-sale:not(.animated) .animable {opacity: 0;}svg#freepik_stories-for-sale.animated #freepik--Clouds--inject-37 {animation: 1s 1 forwards cubic-bezier(.36,-0.01,.5,1.38) slideUp;animation-delay: 0s;}svg#freepik_stories-for-sale.animated #freepik--House--inject-37 {animation: 1s 1 forwards cubic-bezier(.36,-0.01,.5,1.38) slideRight;animation-delay: 0s;}svg#freepik_stories-for-sale.animated #freepik--Ground--inject-37 {animation: 1s 1 forwards cubic-bezier(.36,-0.01,.5,1.38) lightSpeedRight;animation-delay: 0s;}svg#freepik_stories-for-sale.animated #freepik--Sign--inject-37 {animation: 1s 1 forwards cubic-bezier(.36,-0.01,.5,1.38) slideUp;animation-delay: 0s;}            @keyframes slideUp {                0% {                    opacity: 0;                    transform: translateY(30px);                }                100% {                    opacity: 1;                    transform: inherit;                }            }                    @keyframes slideRight {                0% {                    opacity: 0;                    transform: translateX(30px);                }                100% {                    opacity: 1;                    transform: translateX(0);                }            }                    @keyframes lightSpeedRight {              from {                transform: translate3d(50%, 0, 0) skewX(-20deg);                opacity: 0;              }              60% {                transform: skewX(10deg);                opacity: 1;              }              80% {                transform: skewX(-2deg);              }              to {                opacity: 1;                transform: translate3d(0, 0, 0);              }            }        </style><g class="animable" style="transform-origin: 255.042px 218.831px 0px;" id="freepik--Clouds--inject-37"><path class="animable" id="el7se8ugbz2p5" style="fill: #01B46F; transform-origin: 255.042px 244.245px 0px;" d="M447.83,192.39c-3.61-2-5.26-.33-6.57-2s3.61-5.91-6.24-10.18c0,0-.66-9.19-14.12-9.52s-9.85,9.19-13.46,11.49-4.6-1.31-8.21,1-2,6.89-4.92,7.55c-2.7.6-6.21-2.34-9.55-1.12a49.91,49.91,0,0,0-4.6-10.65c-12.19-20.93-38.77-30.58-59.58-36.47-66.23-18.73-82.25,27.26-123.3,52.59s-89.3,2-112.74,20.19-31.26,63.38-19.82,84.22,36.74,27.63,40.65,37.62,2.69,13.26,2.69,13.26h307c2.4,0,8.74-12.85,10-15.35,7.08-14.21,7.94-28.31-4.49-39.23-12-10.54-32.75-17.17-34.21-36.76s3.56-41.86.17-61.73h63.9S451.44,194.36,447.83,192.39ZM195.18,306.3H112.11s2.3-1.64,4.27-3,5.25,0,6.89,0,1.64-2,5.26-4.26,7.55,1.31,10.5.65,1.32-5.25,4.93-7.55,4.6,1.31,8.21-1,0-11.83,13.46-11.5,14.12,9.53,14.12,9.53c9.85,4.26,4.92,8.53,6.24,10.17s2.95,0,6.57,2S195.18,306.3,195.18,306.3ZM329.91,160.07H276.6s1.47-1,2.74-1.89,3.37,0,4.42,0,1.06-1.27,3.37-2.74,4.85.84,6.75.42.84-3.37,3.16-4.85,2.95.84,5.27-.63,0-7.59,8.64-7.38,9.06,6.11,9.06,6.11c6.32,2.74,3.16,5.48,4,6.54s1.9,0,4.22,1.26S329.91,160.07,329.91,160.07Z"/><path class="animable" id="elo09alt7dc2" style="fill: #01B46F; transform-origin: 192.977px 100.621px 0px;" d="M231.83,109c-3.62-2-5.26-.33-6.57-2s3.61-5.91-6.24-10.18c0,0-.66-9.19-14.12-9.52s-9.85,9.19-13.46,11.49-4.6-1.31-8.21,1-2,6.89-4.93,7.55-6.89-3-10.5-.66-3.62,4.27-5.26,4.27-4.92-1.31-6.89,0-4.27,3-4.27,3h83.07S235.44,111,231.83,109Z"/><g id="elcr7cogn0zrl"><g id="eltpxectqn6u" class="animable" style="opacity: 0.7; transform-origin: 255.042px 218.831px 0px;"><path class="animable" id="el5a1lryr6juy" style="fill: rgb(255, 255, 255); transform-origin: 255.042px 244.245px 0px;" d="M447.83,192.39c-3.61-2-5.26-.33-6.57-2s3.61-5.91-6.24-10.18c0,0-.66-9.19-14.12-9.52s-9.85,9.19-13.46,11.49-4.6-1.31-8.21,1-2,6.89-4.92,7.55c-2.7.6-6.21-2.34-9.55-1.12a49.91,49.91,0,0,0-4.6-10.65c-12.19-20.93-38.77-30.58-59.58-36.47-66.23-18.73-82.25,27.26-123.3,52.59s-89.3,2-112.74,20.19-31.26,63.38-19.82,84.22,36.74,27.63,40.65,37.62,2.69,13.26,2.69,13.26h307c2.4,0,8.74-12.85,10-15.35,7.08-14.21,7.94-28.31-4.49-39.23-12-10.54-32.75-17.17-34.21-36.76s3.56-41.86.17-61.73h63.9S451.44,194.36,447.83,192.39ZM195.18,306.3H112.11s2.3-1.64,4.27-3,5.25,0,6.89,0,1.64-2,5.26-4.26,7.55,1.31,10.5.65,1.32-5.25,4.93-7.55,4.6,1.31,8.21-1,0-11.83,13.46-11.5,14.12,9.53,14.12,9.53c9.85,4.26,4.92,8.53,6.24,10.17s2.95,0,6.57,2S195.18,306.3,195.18,306.3ZM329.91,160.07H276.6s1.47-1,2.74-1.89,3.37,0,4.42,0,1.06-1.27,3.37-2.74,4.85.84,6.75.42.84-3.37,3.16-4.85,2.95.84,5.27-.63,0-7.59,8.64-7.38,9.06,6.11,9.06,6.11c6.32,2.74,3.16,5.48,4,6.54s1.9,0,4.22,1.26S329.91,160.07,329.91,160.07Z"/><path class="animable" id="el23x764we3dy" style="fill: rgb(255, 255, 255); transform-origin: 192.977px 100.621px 0px;" d="M231.83,109c-3.62-2-5.26-.33-6.57-2s3.61-5.91-6.24-10.18c0,0-.66-9.19-14.12-9.52s-9.85,9.19-13.46,11.49-4.6-1.31-8.21,1-2,6.89-4.93,7.55-6.89-3-10.5-.66-3.62,4.27-5.26,4.27-4.92-1.31-6.89,0-4.27,3-4.27,3h83.07S235.44,111,231.83,109Z"/></g></g></g><g class="animable" style="transform-origin: 337.27px 257.77px 0px;" id="freepik--House--inject-37"><polygon class="animable" id="elvl2f88lbm9" style="fill: rgb(255, 255, 255); stroke: rgb(46, 53, 58); stroke-linecap: round; stroke-linejoin: round; stroke-width: 0.887535px; transform-origin: 444.85px 298.895px 0px;" points="441.74 285.82 451.5 311.97 444.85 311.97 438.2 291.58 441.74 285.82"/><polygon class="animable" id="elv3778yzgrae" style="fill: rgb(46, 53, 58); transform-origin: 403.105px 321.695px 0px;" points="447.06 350.39 359.15 350.39 359.15 305.47 440.77 293 447.06 310.34 447.06 350.39"/><rect class="animable" id="elrpjkm573cqi" style="fill: rgb(46, 53, 58); transform-origin: 313.93px 282.42px 0px;" height="135.94" width="114.66" y="214.45" x="256.6"/><polygon class="animable" id="elkchlxul5a1b" style="fill: rgb(46, 53, 58); transform-origin: 313.93px 195.295px 0px;" points="249.54 225.44 244.66 219.12 314.57 165.15 383.2 218.14 378.33 224.46 314.57 175.23 249.54 225.44"/><rect class="animable" id="elf2ziuqndnms" style="fill: rgb(255, 255, 255); stroke: rgb(46, 53, 58); stroke-linecap: round; stroke-linejoin: round; stroke-width: 0.887535px; transform-origin: 292.95px 282.42px 0px;" height="135.94" width="114.66" y="214.45" x="235.62"/><polygon class="animable" id="el5u11p7ll969" style="fill: rgb(255, 255, 255); stroke: rgb(46, 53, 58); stroke-linejoin: round; stroke-width: 0.887535px; transform-origin: 292.95px 192.32px 0px;" points="292.95 170.19 235.62 214.45 350.28 214.45 292.95 170.19"/><polygon class="animable" id="el0mngka2azoq9" style="fill: #01B46F; mix-blend-mode: multiply; transform-origin: 292.95px 197.36px 0px;" points="292.95 170.19 235.62 214.45 235.62 224.53 248.68 214.45 292.95 180.27 337.23 214.45 350.28 224.53 350.28 214.45 292.95 170.19"/><rect class="animable" id="eldwz34la0mza" style="fill: rgb(255, 255, 255); stroke: rgb(46, 53, 58); stroke-linecap: round; stroke-linejoin: round; stroke-width: 0.887535px; transform-origin: 394.24px 327.93px 0px;" height="44.92" width="87.92" y="305.47" x="350.28"/><rect class="animable" id="elclfrhmtenl7" style="fill: #01B46F; stroke: rgb(46, 53, 58); stroke-linecap: round; stroke-linejoin: round; stroke-width: 0.887535px; transform-origin: 394.245px 327.93px 0px;" height="44.92" width="70.19" y="305.47" x="359.15"/><rect class="animable" id="el7jii13puzu9" style="fill: #01B46F; mix-blend-mode: multiply; transform-origin: 394.24px 310.285px 0px;" height="9.63" width="87.92" y="305.47" x="350.28"/><line class="animable" id="elaq8ls1zs055" style="fill: none; stroke: rgb(46, 53, 58); stroke-linecap: round; stroke-linejoin: round; stroke-width: 0.887535px; transform-origin: 394.24px 318.62px 0px;" y2="318.62" x2="429.33" y1="318.62" x1="359.15"/><line class="animable" id="eluamjwhcngv" style="fill: none; stroke: rgb(46, 53, 58); stroke-linecap: round; stroke-linejoin: round; stroke-width: 0.887535px; transform-origin: 394.24px 325.27px 0px;" y2="325.27" x2="429.33" y1="325.27" x1="359.15"/><line class="animable" id="elq54zzjmq5da" style="fill: none; stroke: rgb(46, 53, 58); stroke-linecap: round; stroke-linejoin: round; stroke-width: 0.887535px; transform-origin: 394.24px 331.92px 0px;" y2="331.92" x2="429.33" y1="331.92" x1="359.15"/><line class="animable" id="elb1cskrrn5a7" style="fill: none; stroke: rgb(46, 53, 58); stroke-linecap: round; stroke-linejoin: round; stroke-width: 0.887535px; transform-origin: 394.24px 338.57px 0px;" y2="338.57" x2="429.33" y1="338.57" x1="359.15"/><line class="animable" id="el2gglczh5ipv" style="fill: none; stroke: rgb(46, 53, 58); stroke-linecap: round; stroke-linejoin: round; stroke-width: 0.887535px; transform-origin: 394.24px 345.22px 0px;" y2="345.22" x2="429.33" y1="345.22" x1="359.15"/><rect class="animable" id="el0r5ii8uep61h" style="fill: rgb(46, 53, 58); transform-origin: 256.605px 325.27px 0px;" height="50.24" width="23.05" y="300.15" x="245.08"/><rect class="animable" id="elq82a3ap8hg" style="fill: rgb(255, 255, 255); stroke: rgb(46, 53, 58); stroke-linecap: round; stroke-linejoin: round; stroke-width: 0.887535px; transform-origin: 291.765px 317.585px 0px;" height="34.87" width="23.05" y="300.15" x="280.24"/><rect class="animable" id="elrd1ujvy1q9t" style="fill: rgb(46, 53, 58); transform-origin: 291.765px 317.59px 0px;" height="2.96" width="23.05" y="316.11" x="280.24"/><rect class="animable" id="ele8gqo2kwcs" style="fill: rgb(46, 53, 58); transform-origin: 291.77px 317.585px 0px;" height="34.87" width="2.96" y="300.15" x="290.29"/><rect class="animable" id="elihzop3ia1lj" style="fill: rgb(255, 255, 255); stroke: rgb(46, 53, 58); stroke-linecap: round; stroke-linejoin: round; stroke-width: 0.887535px; transform-origin: 334.025px 317.585px 0px;" height="34.87" width="23.05" y="300.15" x="322.5"/><rect class="animable" id="elanx30cbp94r" style="fill: rgb(46, 53, 58); transform-origin: 334.025px 317.59px 0px;" height="2.96" width="23.05" y="316.11" x="322.5"/><rect class="animable" id="els2eq7hoc45g" style="fill: rgb(46, 53, 58); transform-origin: 334.03px 317.585px 0px;" height="34.87" width="2.96" y="300.15" x="332.55"/><rect class="animable" id="elutqazha4wrl" style="fill: rgb(255, 255, 255); stroke: rgb(46, 53, 58); stroke-linecap: round; stroke-linejoin: round; stroke-width: 0.887535px; transform-origin: 313.64px 325.27px 0px;" height="50.24" width="4.42" y="300.15" x="311.43"/><rect class="animable" id="eleddo0izoqvs" style="fill: rgb(255, 255, 255); stroke: rgb(46, 53, 58); stroke-linecap: round; stroke-linejoin: round; stroke-width: 0.887535px; transform-origin: 275px 325.27px 0px;" height="50.24" width="4.42" y="300.15" x="272.79"/><rect class="animable" id="elq493o64txe" style="fill: rgb(46, 53, 58); transform-origin: 293.245px 305.47px 0px;" height="6.5" width="104.61" y="302.22" x="240.94"/><rect class="animable" id="el479y5fp3s5x" style="fill: #01B46F; stroke: rgb(46, 53, 58); stroke-linecap: round; stroke-linejoin: round; stroke-width: 0.887535px; transform-origin: 293.245px 302.22px 0px;" height="6.5" width="104.61" y="298.97" x="240.94"/><polygon class="animable" id="elqqbpek3xagb" style="fill: rgb(255, 255, 255); stroke: rgb(46, 53, 58); stroke-linejoin: round; stroke-width: 0.887535px; transform-origin: 292.31px 195.295px 0px;" points="227.92 225.44 223.04 219.12 292.95 165.15 361.58 218.14 356.71 224.46 292.95 175.23 227.92 225.44"/><polygon class="animable" id="elhc3cpotimg" style="fill: rgb(46, 53, 58); transform-origin: 391.64px 298.895px 0px;" points="438.2 311.97 341.54 311.97 350.41 285.82 441.74 285.82 438.2 311.97"/><polygon class="animable" id="el12zapr8rkifb" style="fill: rgb(46, 53, 58); transform-origin: 337.165px 191.645px 0px;" points="361.58 218.14 381.38 218.14 314.57 165.15 292.95 165.15 361.58 218.14"/><polygon class="animable" id="el6ue0aj61drn" style="fill: rgb(46, 53, 58); transform-origin: 369.955px 221.3px 0px;" points="356.71 224.46 378.33 224.46 383.2 218.14 361.58 218.14 356.71 224.46"/><rect class="animable" id="ellkxw21blnl" style="fill: rgb(255, 255, 255); stroke: rgb(46, 53, 58); stroke-linecap: round; stroke-linejoin: round; stroke-width: 0.887535px; transform-origin: 251.285px 244.6px 0px;" height="20.1" width="12.41" y="234.55" x="245.08"/><rect class="animable" id="elyr2fgnvgcz" style="fill: rgb(46, 53, 58); transform-origin: 251.285px 249.625px 0px;" height="10.05" width="12.41" y="244.6" x="245.08"/><rect class="animable" id="elhds1oi4v4g" style="fill: rgb(255, 255, 255); stroke: rgb(46, 53, 58); stroke-linecap: round; stroke-linejoin: round; stroke-width: 0.887535px; transform-origin: 251.285px 244.6px 0px;" height="2.24" width="12.41" y="243.48" x="245.08"/><rect class="animable" id="elt4iwdehd1hl" style="fill: rgb(255, 255, 255); stroke: rgb(46, 53, 58); stroke-linecap: round; stroke-linejoin: round; stroke-width: 0.887535px; transform-origin: 251.285px 273.56px 0px;" height="20.1" width="12.41" y="263.51" x="245.08"/><rect class="animable" id="eldz4qi4vv48k" style="fill: rgb(46, 53, 58); transform-origin: 251.285px 278.53px 0px;" height="10.14" width="12.41" y="273.46" x="245.08"/><rect class="animable" id="ela2culpv4z9o" style="fill: rgb(255, 255, 255); stroke: rgb(46, 53, 58); stroke-linecap: round; stroke-linejoin: round; stroke-width: 0.887535px; transform-origin: 335.205px 244.6px 0px;" height="20.1" width="12.41" y="234.55" x="329"/><rect class="animable" id="ell9x7vcood" style="fill: rgb(46, 53, 58); transform-origin: 335.205px 249.625px 0px;" height="10.05" width="12.41" y="244.6" x="329"/><rect class="animable" id="eli8074czcjok" style="fill: rgb(255, 255, 255); stroke: rgb(46, 53, 58); stroke-linecap: round; stroke-linejoin: round; stroke-width: 0.887535px; transform-origin: 335.205px 273.56px 0px;" height="20.1" width="12.41" y="263.51" x="329"/><rect class="animable" id="elf1pgjj3s4or" style="fill: rgb(46, 53, 58); transform-origin: 335.205px 277.97px 0px;" height="11.26" width="12.41" y="272.34" x="329"/><rect class="animable" id="eltrv06zjydt" style="fill: rgb(255, 255, 255); stroke: rgb(46, 53, 58); stroke-linecap: round; stroke-linejoin: round; stroke-width: 0.887535px; transform-origin: 291.765px 244.6px 0px;" height="20.1" width="12.41" y="234.55" x="285.56"/><rect class="animable" id="elytcar3mevm" style="fill: rgb(46, 53, 58); transform-origin: 291.765px 249.625px 0px;" height="10.05" width="12.41" y="244.6" x="285.56"/><rect class="animable" id="elyidqyoud7fo" style="fill: rgb(255, 255, 255); stroke: rgb(46, 53, 58); stroke-linecap: round; stroke-linejoin: round; stroke-width: 0.887535px; transform-origin: 291.765px 273.56px 0px;" height="20.1" width="12.41" y="263.51" x="285.56"/><rect class="animable" id="elj0xn65iqgnd" style="fill: rgb(46, 53, 58); transform-origin: 291.765px 277.97px 0px;" height="11.26" width="12.41" y="272.34" x="285.56"/><rect class="animable" id="elvqty23yrywn" style="fill: rgb(255, 255, 255); stroke: rgb(46, 53, 58); stroke-linecap: round; stroke-linejoin: round; stroke-width: 0.887535px; transform-origin: 291.765px 244.6px 0px;" height="2.24" width="12.41" y="243.48" x="285.56"/><rect class="animable" id="elp6bstyl7nx" style="fill: rgb(255, 255, 255); stroke: rgb(46, 53, 58); stroke-linecap: round; stroke-linejoin: round; stroke-width: 0.887535px; transform-origin: 335.205px 244.6px 0px;" height="2.24" width="12.41" y="243.48" x="329"/><rect class="animable" id="ell9imh48419" style="fill: rgb(255, 255, 255); stroke: rgb(46, 53, 58); stroke-linecap: round; stroke-linejoin: round; stroke-width: 0.887535px; transform-origin: 251.285px 272.34px 0px;" height="2.24" width="12.41" y="271.22" x="245.08"/><rect class="animable" id="elisuziiglqae" style="fill: rgb(255, 255, 255); stroke: rgb(46, 53, 58); stroke-linecap: round; stroke-linejoin: round; stroke-width: 0.887535px; transform-origin: 291.765px 272.34px 0px;" height="2.24" width="12.41" y="271.22" x="285.56"/><rect class="animable" id="elhcdg76fhpyv" style="fill: rgb(255, 255, 255); stroke: rgb(46, 53, 58); stroke-linecap: round; stroke-linejoin: round; stroke-width: 0.887535px; transform-origin: 335.205px 272.34px 0px;" height="2.24" width="12.41" y="271.22" x="329"/><line class="animable" id="ellj52fsdtjt" style="fill: none; stroke: rgb(46, 53, 58); stroke-linecap: round; stroke-linejoin: round; stroke-width: 0.887535px; transform-origin: 245.73px 222.975px 0px;" y2="225.44" x2="245.73" y1="220.51" x1="245.73"/><line class="animable" id="eljakztug0wbc" style="fill: none; stroke: rgb(46, 53, 58); stroke-linecap: round; stroke-linejoin: round; stroke-width: 0.887535px; transform-origin: 254.6px 222.975px 0px;" y2="225.44" x2="254.6" y1="220.51" x1="254.6"/><line class="animable" id="el17xr213wip6" style="fill: none; stroke: rgb(46, 53, 58); stroke-linecap: round; stroke-linejoin: round; stroke-width: 0.887535px; transform-origin: 249.54px 227.905px 0px;" y2="230.37" x2="249.54" y1="225.44" x1="249.54"/><line class="animable" id="elsplio43rmm" style="fill: none; stroke: rgb(46, 53, 58); stroke-linecap: round; stroke-linejoin: round; stroke-width: 0.887535px; transform-origin: 259.67px 227.905px 0px;" y2="230.37" x2="259.67" y1="225.44" x1="259.67"/><line class="animable" id="elzdb4y5qwwm" style="fill: none; stroke: rgb(46, 53, 58); stroke-linecap: round; stroke-linejoin: round; stroke-width: 0.887535px; transform-origin: 251.93px 225.44px 0px;" y2="225.44" x2="262.06" y1="225.44" x1="241.8"/><line class="animable" id="el14arp3s1h9hg" style="fill: none; stroke: rgb(46, 53, 58); stroke-linecap: round; stroke-linejoin: round; stroke-width: 0.887535px; transform-origin: 245.73px 288.825px 0px;" y2="291.29" x2="245.73" y1="286.36" x1="245.73"/><line class="animable" id="ele6ac24g5mdc" style="fill: none; stroke: rgb(46, 53, 58); stroke-linecap: round; stroke-linejoin: round; stroke-width: 0.887535px; transform-origin: 254.6px 288.825px 0px;" y2="291.29" x2="254.6" y1="286.36" x1="254.6"/><line class="animable" id="eleaeuv9ujt3f" style="fill: none; stroke: rgb(46, 53, 58); stroke-linecap: round; stroke-linejoin: round; stroke-width: 0.887535px; transform-origin: 249.54px 293.755px 0px;" y2="296.22" x2="249.54" y1="291.29" x1="249.54"/><line class="animable" id="elz6uobp32kw" style="fill: none; stroke: rgb(46, 53, 58); stroke-linecap: round; stroke-linejoin: round; stroke-width: 0.887535px; transform-origin: 259.67px 293.755px 0px;" y2="296.22" x2="259.67" y1="291.29" x1="259.67"/><line class="animable" id="elrp56pnlv3o" style="fill: none; stroke: rgb(46, 53, 58); stroke-linecap: round; stroke-linejoin: round; stroke-width: 0.887535px; transform-origin: 251.93px 291.29px 0px;" y2="291.29" x2="262.06" y1="291.29" x1="241.8"/><line class="animable" id="el72dbjs86p9h" style="fill: none; stroke: rgb(46, 53, 58); stroke-linecap: round; stroke-linejoin: round; stroke-width: 0.887535px; transform-origin: 263.7px 242.13px 0px;" y2="244.6" x2="263.7" y1="239.66" x1="263.7"/><line class="animable" id="el80t4om3br6k" style="fill: none; stroke: rgb(46, 53, 58); stroke-linecap: round; stroke-linejoin: round; stroke-width: 0.887535px; transform-origin: 272.57px 242.13px 0px;" y2="244.6" x2="272.57" y1="239.66" x1="272.57"/><line class="animable" id="elx747658vytk" style="fill: none; stroke: rgb(46, 53, 58); stroke-linecap: round; stroke-linejoin: round; stroke-width: 0.887535px; transform-origin: 267.51px 247.065px 0px;" y2="249.53" x2="267.51" y1="244.6" x1="267.51"/><line class="animable" id="elberxjxh69sl" style="fill: none; stroke: rgb(46, 53, 58); stroke-linecap: round; stroke-linejoin: round; stroke-width: 0.887535px; transform-origin: 277.64px 247.065px 0px;" y2="249.53" x2="277.64" y1="244.6" x1="277.64"/><line class="animable" id="elkv353xkcwo9" style="fill: none; stroke: rgb(46, 53, 58); stroke-linecap: round; stroke-linejoin: round; stroke-width: 0.887535px; transform-origin: 269.9px 244.6px 0px;" y2="244.6" x2="280.03" y1="244.6" x1="259.77"/><line class="animable" id="ely3gs1k3sds" style="fill: none; stroke: rgb(46, 53, 58); stroke-linecap: round; stroke-linejoin: round; stroke-width: 0.887535px; transform-origin: 271.865px 249.53px 0px;" y2="249.53" x2="280.03" y1="249.53" x1="263.7"/><line class="animable" id="el8owfq2l41m8" style="fill: none; stroke: rgb(46, 53, 58); stroke-linecap: round; stroke-linejoin: round; stroke-width: 0.887535px; transform-origin: 263.7px 252.175px 0px;" y2="254.64" x2="263.7" y1="249.71" x1="263.7"/><line class="animable" id="el55lf3vnviz5" style="fill: none; stroke: rgb(46, 53, 58); stroke-linecap: round; stroke-linejoin: round; stroke-width: 0.887535px; transform-origin: 272.57px 252.175px 0px;" y2="254.64" x2="272.57" y1="249.71" x1="272.57"/><line class="animable" id="elmv1k1g3rqta" style="fill: none; stroke: rgb(46, 53, 58); stroke-linecap: round; stroke-linejoin: round; stroke-width: 0.887535px; transform-origin: 267.51px 257.105px 0px;" y2="259.57" x2="267.51" y1="254.64" x1="267.51"/><line class="animable" id="elgwgc37zcmwk" style="fill: none; stroke: rgb(46, 53, 58); stroke-linecap: round; stroke-linejoin: round; stroke-width: 0.887535px; transform-origin: 277.64px 257.105px 0px;" y2="259.57" x2="277.64" y1="254.64" x1="277.64"/><line class="animable" id="ely5rz0idozbi" style="fill: none; stroke: rgb(46, 53, 58); stroke-linecap: round; stroke-linejoin: round; stroke-width: 0.887535px; transform-origin: 269.9px 254.64px 0px;" y2="254.64" x2="280.03" y1="254.64" x1="259.77"/><line class="animable" id="el05bgk1vh3mb" style="fill: none; stroke: rgb(46, 53, 58); stroke-linecap: round; stroke-linejoin: round; stroke-width: 0.887535px; transform-origin: 307.88px 275.025px 0px;" y2="277.49" x2="307.88" y1="272.56" x1="307.88"/><line class="animable" id="elzp68pmqctx" style="fill: none; stroke: rgb(46, 53, 58); stroke-linecap: round; stroke-linejoin: round; stroke-width: 0.887535px; transform-origin: 316.75px 275.025px 0px;" y2="277.49" x2="316.75" y1="272.56" x1="316.75"/><line class="animable" id="el2q81fneqil3" style="fill: none; stroke: rgb(46, 53, 58); stroke-linecap: round; stroke-linejoin: round; stroke-width: 0.887535px; transform-origin: 311.69px 279.955px 0px;" y2="282.42" x2="311.69" y1="277.49" x1="311.69"/><line class="animable" id="elw1onvcs0tp" style="fill: none; stroke: rgb(46, 53, 58); stroke-linecap: round; stroke-linejoin: round; stroke-width: 0.887535px; transform-origin: 321.82px 279.955px 0px;" y2="282.42" x2="321.82" y1="277.49" x1="321.82"/><line class="animable" id="el3naz363zw1r" style="fill: none; stroke: rgb(46, 53, 58); stroke-linecap: round; stroke-linejoin: round; stroke-width: 0.887535px; transform-origin: 314.08px 277.49px 0px;" y2="277.49" x2="324.21" y1="277.49" x1="303.95"/><line class="animable" id="elozz388qxxfp" style="fill: none; stroke: rgb(46, 53, 58); stroke-linecap: round; stroke-linejoin: round; stroke-width: 0.887535px; transform-origin: 316.045px 282.42px 0px;" y2="282.42" x2="324.21" y1="282.42" x1="307.88"/><line class="animable" id="eld910e1rfivs" style="fill: none; stroke: rgb(46, 53, 58); stroke-linecap: round; stroke-linejoin: round; stroke-width: 0.887535px; transform-origin: 307.88px 285.075px 0px;" y2="287.54" x2="307.88" y1="282.61" x1="307.88"/><line class="animable" id="el453943zttym" style="fill: none; stroke: rgb(46, 53, 58); stroke-linecap: round; stroke-linejoin: round; stroke-width: 0.887535px; transform-origin: 316.75px 285.075px 0px;" y2="287.54" x2="316.75" y1="282.61" x1="316.75"/><line class="animable" id="el7y6v5vvycpi" style="fill: none; stroke: rgb(46, 53, 58); stroke-linecap: round; stroke-linejoin: round; stroke-width: 0.887535px; transform-origin: 311.69px 290.005px 0px;" y2="292.47" x2="311.69" y1="287.54" x1="311.69"/><line class="animable" id="el7h2h9fbx00j" style="fill: none; stroke: rgb(46, 53, 58); stroke-linecap: round; stroke-linejoin: round; stroke-width: 0.887535px; transform-origin: 321.82px 290.005px 0px;" y2="292.47" x2="321.82" y1="287.54" x1="321.82"/><line class="animable" id="eldvj67nb44e8" style="fill: none; stroke: rgb(46, 53, 58); stroke-linecap: round; stroke-linejoin: round; stroke-width: 0.887535px; transform-origin: 314.08px 287.54px 0px;" y2="287.54" x2="324.21" y1="287.54" x1="303.95"/></g><g class="animable" style="transform-origin: 248.79px 365.675px 0px;" id="freepik--Ground--inject-37"><path class="animable" id="elw492gebjxmj" style="fill: #01B46F; transform-origin: 219.65px 365.675px 0px;" d="M70,364.32c19.66,8.13,70.18-.67,65,8.81s-44.75,5.92-56,16.17,39.93,9.43,38.12,12.54-46.84,5.24-43.88,9.43H376.66c.49-3.28-3-7.26-8.7-10-45.18-1.85-198.28-8.63-182.24-15.18,18.8-7.66,80.18-15.32,91.4-21.32s-38.48-6.67-46.8-9.33c-2.68-.86-3-1.7-2.13-2.43l1.43.09v-.91a39.47,39.47,0,0,1,7-1.83h-7v-1.73l-1,.63-1.71,1.1h-.55a33.16,33.16,0,0,0,1.42-6.66c.39-3.91-5.1,4.93-5.1,4.93s.78-3,0-4.93-3.14,2.61-3.14,2.61,2.75-10.85,0-17.9-5.85,17.9-5.85,17.9-.42-9.68-3.95-9.87c-2.86-.16-1.09,6.42-.31,8.92a10.93,10.93,0,0,0-2.62-3.7c-2.53-2.42,0,5.59,0,5.59s-1-2.38-7.61-3.55,2.7,5.18,2.7,5.18a83.12,83.12,0,0,0-8.71-2c-1.46-.24-1.58.12-1.1.72l-.95.61-3.06,2a41.61,41.61,0,0,0,2-9.06c.5-5-6.49,6.28-6.49,6.28s1-3.79,0-6.28-4,3.32-4,3.32,3.5-13.81,0-22.79-7.45,22.79-7.45,22.79-.54-12.31-5-12.56c-3.63-.2-1.4,8.11-.4,11.32a13.87,13.87,0,0,0-3.32-4.67c-3.23-3.08,0,7.11,0,7.11s-1.27-3-9.69-4.52,3.43,6.6,3.43,6.6a105.14,105.14,0,0,0-11.09-2.54c-5.6-.92,4.26,5.17,4.26,5.17H76S50.36,356.2,70,364.32ZM192.42,348a24.9,24.9,0,0,0,3.21,2.41h-3.21Z"/><path class="animable" id="elli1x1pv2ob" style="fill: #01B46F; transform-origin: 308.005px 365.499px 0px;" d="M312.57,365.53C301.21,370.79,273,376.31,273,376.31c-4.49.61,1.59,6.36,32.77,3.51l53.36-29.43H256.88c3.42,1.76,27.78,5.82,41.64,5.82S323.93,360.26,312.57,365.53Z"/><path class="animable" id="eldrsezgdycq" style="fill: #01B46F; transform-origin: 404.34px 350.303px 0px;" d="M394.26,350.39h20.16C404.3,350,394.26,350.39,394.26,350.39Z"/><path class="animable" id="elkusdt853xem" style="fill: #01B46F; transform-origin: 407.308px 366.99px 0px;" d="M427.52,351.56l-47.89,30.86c6.07-.23,12.42-.38,18.57-.53,26.53-.64,16.9-12.15,18.7-16.21s16.86-3.39,18.06-10.16C435.3,353.6,432.17,352.36,427.52,351.56Z"/><g id="el2tbqdwxlaj"><g id="elx4d6nh9goil" class="animable" style="opacity: 0.3; transform-origin: 248.79px 365.675px 0px;"><path class="animable" id="eltd44ars7poh" style="fill: rgb(255, 255, 255); transform-origin: 219.65px 365.675px 0px;" d="M70,364.32c19.66,8.13,70.18-.67,65,8.81s-44.75,5.92-56,16.17,39.93,9.43,38.12,12.54-46.84,5.24-43.88,9.43H376.66c.49-3.28-3-7.26-8.7-10-45.18-1.85-198.28-8.63-182.24-15.18,18.8-7.66,80.18-15.32,91.4-21.32s-38.48-6.67-46.8-9.33c-2.68-.86-3-1.7-2.13-2.43l1.43.09v-.91a39.47,39.47,0,0,1,7-1.83h-7v-1.73l-1,.63-1.71,1.1h-.55a33.16,33.16,0,0,0,1.42-6.66c.39-3.91-5.1,4.93-5.1,4.93s.78-3,0-4.93-3.14,2.61-3.14,2.61,2.75-10.85,0-17.9-5.85,17.9-5.85,17.9-.42-9.68-3.95-9.87c-2.86-.16-1.09,6.42-.31,8.92a10.93,10.93,0,0,0-2.62-3.7c-2.53-2.42,0,5.59,0,5.59s-1-2.38-7.61-3.55,2.7,5.18,2.7,5.18a83.12,83.12,0,0,0-8.71-2c-1.46-.24-1.58.12-1.1.72l-.95.61-3.06,2a41.61,41.61,0,0,0,2-9.06c.5-5-6.49,6.28-6.49,6.28s1-3.79,0-6.28-4,3.32-4,3.32,3.5-13.81,0-22.79-7.45,22.79-7.45,22.79-.54-12.31-5-12.56c-3.63-.2-1.4,8.11-.4,11.32a13.87,13.87,0,0,0-3.32-4.67c-3.23-3.08,0,7.11,0,7.11s-1.27-3-9.69-4.52,3.43,6.6,3.43,6.6a105.14,105.14,0,0,0-11.09-2.54c-5.6-.92,4.26,5.17,4.26,5.17H76S50.36,356.2,70,364.32ZM192.42,348a24.9,24.9,0,0,0,3.21,2.41h-3.21Z"/><path class="animable" id="el40bxhvathuo" style="fill: rgb(255, 255, 255); transform-origin: 308.005px 365.499px 0px;" d="M312.57,365.53C301.21,370.79,273,376.31,273,376.31c-4.49.61,1.59,6.36,32.77,3.51l53.36-29.43H256.88c3.42,1.76,27.78,5.82,41.64,5.82S323.93,360.26,312.57,365.53Z"/><path class="animable" id="el601ugiooc5" style="fill: rgb(255, 255, 255); transform-origin: 404.34px 350.303px 0px;" d="M394.26,350.39h20.16C404.3,350,394.26,350.39,394.26,350.39Z"/><path class="animable" id="elmzjj8336gl" style="fill: rgb(255, 255, 255); transform-origin: 407.308px 366.99px 0px;" d="M427.52,351.56l-47.89,30.86c6.07-.23,12.42-.38,18.57-.53,26.53-.64,16.9-12.15,18.7-16.21s16.86-3.39,18.06-10.16C435.3,353.6,432.17,352.36,427.52,351.56Z"/></g></g></g><g class="animable" style="transform-origin: 169.087px 256.267px 0px;" id="freepik--Sign--inject-37"><path class="animable" id="el8c0pfjtpfig" style="fill: #01B46F; stroke: rgb(46, 53, 58); stroke-miterlimit: 10; transform-origin: 192.975px 222.53px 0px;" d="M134.31,182.2v80.66H251.64V182.2Zm10.9,9.91a3.24,3.24,0,1,1,3.24-3.24A3.24,3.24,0,0,1,145.21,192.11Zm95.42,0a3.24,3.24,0,1,1,3.24-3.24A3.25,3.25,0,0,1,240.63,192.11Z"/><path class="animable" id="elrdew4s5giz9" style="fill: rgb(46, 53, 58); transform-origin: 192.42px 222.02px 0px;" d="M243.87,188.87a3.24,3.24,0,1,1-3.24-3.24H145.21a3.24,3.24,0,1,1-3.24,3.24,3.24,3.24,0,0,1,3.24-3.24h-7.52v72.78H247.15V185.63h-6.52A3.24,3.24,0,0,1,243.87,188.87Z"/><path class="animable" id="el4eabe1r0hik" style="fill: rgb(255, 255, 255); stroke: rgb(46, 53, 58); stroke-linecap: round; stroke-linejoin: round; stroke-width: 0.916642px; transform-origin: 145.22px 155.71px 0px;" d="M145.21,151a4.71,4.71,0,1,0,4.72,4.71A4.71,4.71,0,0,0,145.21,151Zm0,7.85a3.14,3.14,0,1,1,3.15-3.14A3.15,3.15,0,0,1,145.21,158.88Z"/><path class="animable" id="elhhclg09643n" style="fill: rgb(255, 255, 255); stroke: rgb(46, 53, 58); stroke-linecap: round; stroke-linejoin: round; stroke-width: 0.916642px; transform-origin: 145.21px 167.03px 0px;" d="M145.21,162.31a4.72,4.72,0,1,0,4.72,4.71A4.71,4.71,0,0,0,145.21,162.31Zm0,7.86a3.15,3.15,0,1,1,3.15-3.15A3.15,3.15,0,0,1,145.21,170.17Z"/><path class="animable" id="ela2bmdfm8e" style="fill: rgb(255, 255, 255); stroke: rgb(46, 53, 58); stroke-linecap: round; stroke-linejoin: round; stroke-width: 0.916642px; transform-origin: 145.22px 176.99px 0px;" d="M145.21,172.28a4.71,4.71,0,1,0,4.72,4.71A4.71,4.71,0,0,0,145.21,172.28Zm0,7.85a3.14,3.14,0,1,1,3.15-3.14A3.15,3.15,0,0,1,145.21,180.13Z"/><path class="animable" id="el7es1mhflz7c" style="fill: rgb(255, 255, 255); stroke: rgb(46, 53, 58); stroke-linecap: round; stroke-linejoin: round; stroke-width: 0.916642px; transform-origin: 145.215px 161.795px 0px;" d="M145.21,166.51h0a.83.83,0,0,1-.83-.83v-7.77a.83.83,0,0,1,.83-.83h0a.84.84,0,0,1,.84.83v7.77A.84.84,0,0,1,145.21,166.51Z"/><path class="animable" id="elqz7y0gx9ygq" style="fill: rgb(255, 255, 255); stroke: rgb(46, 53, 58); stroke-linecap: round; stroke-linejoin: round; stroke-width: 0.916642px; transform-origin: 145.215px 172.485px 0px;" d="M145.21,177.2h0a.83.83,0,0,1-.83-.83V168.6a.83.83,0,0,1,.83-.83h0a.84.84,0,0,1,.84.83v7.77A.84.84,0,0,1,145.21,177.2Z"/><path class="animable" id="el83wj2l54lkb" style="fill: rgb(255, 255, 255); stroke: rgb(46, 53, 58); stroke-linecap: round; stroke-linejoin: round; stroke-width: 0.916642px; transform-origin: 145.215px 183.195px 0px;" d="M145.21,187.91h0a.83.83,0,0,1-.83-.83v-7.77a.83.83,0,0,1,.83-.83h0a.84.84,0,0,1,.84.83v7.77A.84.84,0,0,1,145.21,187.91Z"/><path class="animable" id="el9pa61go3jtg" style="fill: rgb(255, 255, 255); stroke: rgb(46, 53, 58); stroke-linecap: round; stroke-linejoin: round; stroke-width: 0.916642px; transform-origin: 240.64px 155.71px 0px;" d="M240.63,151a4.71,4.71,0,1,0,4.72,4.71A4.71,4.71,0,0,0,240.63,151Zm0,7.85a3.14,3.14,0,1,1,3.15-3.14A3.15,3.15,0,0,1,240.63,158.88Z"/><path class="animable" id="el4417nkboil" style="fill: rgb(255, 255, 255); stroke: rgb(46, 53, 58); stroke-linecap: round; stroke-linejoin: round; stroke-width: 0.916642px; transform-origin: 240.63px 167.03px 0px;" d="M240.63,162.31a4.72,4.72,0,1,0,4.72,4.71A4.71,4.71,0,0,0,240.63,162.31Zm0,7.86a3.15,3.15,0,1,1,3.15-3.15A3.15,3.15,0,0,1,240.63,170.17Z"/><path class="animable" id="el9pwrwy9cyts" style="fill: rgb(255, 255, 255); stroke: rgb(46, 53, 58); stroke-linecap: round; stroke-linejoin: round; stroke-width: 0.916642px; transform-origin: 240.64px 176.99px 0px;" d="M240.63,172.28a4.71,4.71,0,1,0,4.72,4.71A4.71,4.71,0,0,0,240.63,172.28Zm0,7.85a3.14,3.14,0,1,1,3.15-3.14A3.15,3.15,0,0,1,240.63,180.13Z"/><path class="animable" id="elbgquwrecqgn" style="fill: rgb(255, 255, 255); stroke: rgb(46, 53, 58); stroke-linecap: round; stroke-linejoin: round; stroke-width: 0.916642px; transform-origin: 240.635px 161.795px 0px;" d="M240.63,166.51h0a.83.83,0,0,1-.83-.83v-7.77a.83.83,0,0,1,.83-.83h0a.84.84,0,0,1,.84.83v7.77A.84.84,0,0,1,240.63,166.51Z"/><path class="animable" id="el7yrce01zmsd" style="fill: rgb(255, 255, 255); stroke: rgb(46, 53, 58); stroke-linecap: round; stroke-linejoin: round; stroke-width: 0.916642px; transform-origin: 240.635px 172.485px 0px;" d="M240.63,177.2h0a.83.83,0,0,1-.83-.83V168.6a.83.83,0,0,1,.83-.83h0a.84.84,0,0,1,.84.83v7.77A.84.84,0,0,1,240.63,177.2Z"/><path class="animable" id="elynzzlctpw5" style="fill: rgb(255, 255, 255); stroke: rgb(46, 53, 58); stroke-linecap: round; stroke-linejoin: round; stroke-width: 0.916642px; transform-origin: 240.635px 183.195px 0px;" d="M240.63,187.91h0a.83.83,0,0,1-.83-.83v-7.77a.83.83,0,0,1,.83-.83h0a.84.84,0,0,1,.84.83v7.77A.84.84,0,0,1,240.63,187.91Z"/><polygon class="animable" id="elmbn6k58cdy" style="fill: rgb(46, 53, 58); stroke: rgb(46, 53, 58); stroke-linecap: round; stroke-linejoin: round; stroke-width: 0.887535px; transform-origin: 176.815px 145.53px 0px;" points="264.99 153.49 81.75 153.49 75.99 137.57 277.64 137.57 264.99 153.49"/><polygon class="animable" id="elv8fe0unn2z" style="fill: rgb(255, 255, 255); stroke: rgb(46, 53, 58); stroke-linecap: round; stroke-linejoin: round; stroke-width: 0.887535px; transform-origin: 172.15px 145.53px 0px;" points="260.32 153.49 77.08 153.49 71.32 137.57 272.98 137.57 260.32 153.49"/><polygon class="animable" id="elhni5qpt9ds9" style="fill: rgb(46, 53, 58); stroke: rgb(46, 53, 58); stroke-linecap: round; stroke-linejoin: round; stroke-width: 0.887535px; transform-origin: 103.595px 249.915px 0px;" points="111.09 406.37 96.1 406.37 100.63 93.46 103.29 93.46 111.09 104.53 111.09 406.37"/><polygon class="animable" id="eljk3vjp9vurg" style="fill: rgb(255, 255, 255); stroke: rgb(46, 53, 58); stroke-linecap: round; stroke-linejoin: round; stroke-width: 0.887535px; transform-origin: 100.925px 249.915px 0px;" points="108.42 406.37 93.43 406.37 93.43 104.53 100.63 93.46 108.42 104.53 108.42 406.37"/><text style="font-size:35.70505905151367px;fill:#fff;font-family:Lato-Bold, Lato;font-weight:700" transform="translate(157.08 220.34)"><tspan style="letter-spacing:-0.006482143389430641em">F</tspan><tspan y="0" x="19.98">OR</tspan><tspan style="letter-spacing:-0.014495932474254175em" y="28.98" x="-5.58">S</tspan><tspan y="28.98" x="13.49">ALE</tspan></text><line class="animable" id="elynhowlhcbd" style="fill: none; stroke: rgb(46, 53, 58); stroke-linecap: round; stroke-linejoin: round; stroke-width: 0.887535px; transform-origin: 96.1px 396.745px 0px;" y2="387.12" x2="96.1" y1="406.37" x1="96.1"/><line class="animable" id="elw1ucg76mccg" style="fill: none; stroke: rgb(46, 53, 58); stroke-linecap: round; stroke-linejoin: round; stroke-width: 0.887535px; transform-origin: 98.72px 371.215px 0px;" y2="336.06" x2="98.72" y1="406.37" x1="98.72"/><line class="animable" id="elvd7fd9li1n" style="fill: none; stroke: rgb(46, 53, 58); stroke-linecap: round; stroke-linejoin: round; stroke-width: 0.887535px; transform-origin: 96.1px 380.7px 0px;" y2="377.2" x2="96.1" y1="384.2" x1="96.1"/><line class="animable" id="elile3lg18o9" style="fill: none; stroke: rgb(46, 53, 58); stroke-linecap: round; stroke-linejoin: round; stroke-width: 0.887535px; transform-origin: 103.59px 278.94px 0px;" y2="275.44" x2="103.59" y1="282.44" x1="103.59"/><line class="animable" id="eliis720foao" style="fill: none; stroke: rgb(46, 53, 58); stroke-linecap: round; stroke-linejoin: round; stroke-width: 0.887535px; transform-origin: 96.1px 104.02px 0px;" y2="100.52" x2="96.1" y1="107.52" x1="96.1"/><line class="animable" id="elnbfg7xjb527" style="fill: none; stroke: rgb(46, 53, 58); stroke-linecap: round; stroke-linejoin: round; stroke-width: 0.887535px; transform-origin: 96.1px 113.24px 0px;" y2="109.74" x2="96.1" y1="116.74" x1="96.1"/><line class="animable" id="el4sk7uf9c1ji" style="fill: none; stroke: rgb(46, 53, 58); stroke-linecap: round; stroke-linejoin: round; stroke-width: 0.887535px; transform-origin: 103.59px 308.56px 0px;" y2="290.3" x2="103.59" y1="326.82" x1="103.59"/><line class="animable" id="elh6wg549zbnb" style="fill: none; stroke: rgb(46, 53, 58); stroke-linecap: round; stroke-linejoin: round; stroke-width: 0.887535px; transform-origin: 75.415px 140.89px 0px;" y2="140.89" x2="78.04" y1="140.89" x1="72.79"/><line class="animable" id="eld0e76bk1hba" style="fill: none; stroke: rgb(46, 53, 58); stroke-linecap: round; stroke-linejoin: round; stroke-width: 0.887535px; transform-origin: 81.395px 143.52px 0px;" y2="143.52" x2="87.67" y1="143.52" x1="75.12"/><line class="animable" id="ela0q9cw9tfxn" style="fill: none; stroke: rgb(46, 53, 58); stroke-linecap: round; stroke-linejoin: round; stroke-width: 0.887535px; transform-origin: 128.04px 143.52px 0px;" y2="143.52" x2="134.31" y1="143.52" x1="121.77"/><line class="animable" id="elfmvhwwtfmw" style="fill: none; stroke: rgb(46, 53, 58); stroke-linecap: round; stroke-linejoin: round; stroke-width: 0.887535px; transform-origin: 130.245px 146.44px 0px;" y2="146.44" x2="132.45" y1="146.44" x1="128.04"/><line class="animable" id="elonnv03t2gq" style="fill: none; stroke: rgb(46, 53, 58); stroke-linecap: round; stroke-linejoin: round; stroke-width: 0.887535px; transform-origin: 163.4px 146.44px 0px;" y2="146.44" x2="176.49" y1="146.44" x1="150.31"/><line class="animable" id="elwfts6ub27c" style="fill: none; stroke: rgb(46, 53, 58); stroke-linecap: round; stroke-linejoin: round; stroke-width: 0.887535px; transform-origin: 264.02px 146.44px 0px;" y2="146.44" x2="261.83" y1="146.44" x1="266.21"/><line class="animable" id="eluzln2tx2h8g" style="fill: none; stroke: rgb(46, 53, 58); stroke-linecap: round; stroke-linejoin: round; stroke-width: 0.887535px; transform-origin: 256.725px 148.48px 0px;" y2="148.48" x2="249.29" y1="148.48" x1="264.16"/><path class="animable" id="elhtia4tukm2" style="fill: rgb(46, 53, 58); stroke: rgb(46, 53, 58); stroke-linecap: round; stroke-linejoin: round; stroke-width: 0.916642px; transform-origin: 107.704px 401.602px 0px;" d="M63,411h9.81S55,395.12,63,396.74,78,404,78,404s-9.46-8.9-2.92-7.28,6.27,4.3,6.27,4.3.51-19.23,6.28-13.92a17,17,0,0,1,5.76,11.49s12.33-15.25,15-14.41,2.67,10.17,2.67,10.17,20.71-16.88,16.95-7.25-6.27,13.25-6.27,13.25,9.72-8.59,8.48-3.63a41.71,41.71,0,0,1-2.21,7s14.62,4.58,12.46,4.57-6.19,2.77-6.19,2.77,24.69-4,20,0-43.24,3.33-43.24,3.33S129.87,419,121.77,419s-20.84-3.34-20.84-3.34-19,4-25.81,3.34,12.55-3.34,12.55-3.34S50.83,415.7,63,411Z"/></g><defs>     <filter height="200%" id="active">         <feMorphology radius="2" operator="dilate" result="DILATED" in="SourceAlpha"/>                <feFlood result="PINK" flood-opacity="1" flood-color="#32DFEC"/>        <feComposite result="OUTLINE" operator="in" in2="DILATED" in="PINK"/>        <feMerge>            <feMergeNode in="OUTLINE"/>            <feMergeNode in="SourceGraphic"/>        </feMerge>    </filter>    <filter height="200%" id="hover">        <feMorphology radius="2" operator="dilate" result="DILATED" in="SourceAlpha"/>                <feFlood result="PINK" flood-opacity="0.5" flood-color="#ff0000"/>        <feComposite result="OUTLINE" operator="in" in2="DILATED" in="PINK"/>        <feMerge>            <feMergeNode in="OUTLINE"/>            <feMergeNode in="SourceGraphic"/>        </feMerge>            <feColorMatrix values="0   0   0   0   0                0   1   0   0   0                0   0   0   0   0                0   0   0   1   0" type="matrix"/>    </filter></defs></svg>